<svg xmlns="http://www.w3.org/2000/svg" viewBox="0 0 32 32" fill="none">
  <circle cx="16" cy="16" r="16" fill="#F59E0B"/>
  <path d="M10 20c-1.1 0-2 .9-2 2s.9 2 2 2 2-.9 2-2-.9-2-2-2zm12 0c-1.1 0-2 .9-2 2s.9 2 2 2 2-.9 2-2-.9-2-2-2zm-6-2c-2.2 0-4 1.8-4 4 0 1.3.6 2.4 1.6 3.2C14.5 25.8 15.2 26 16 26s1.5-.2 2.4-.8c1-.8 1.6-1.9 1.6-3.2 0-2.2-1.8-4-4-4zM8.5 14c-1.4 0-2.5 1.1-2.5 2.5s1.1 2.5 2.5 2.5 2.5-1.1 2.5-2.5-1.1-2.5-2.5-2.5zm15 0c-1.4 0-2.5 1.1-2.5 2.5s1.1 2.5 2.5 2.5 2.5-1.1 2.5-2.5-1.1-2.5-2.5-2.5z" fill="#FFF"/>
</svg>
